<svg version="1.0" xmlns="http://www.w3.org/2000/svg"
 width="700.000000pt" height="700.000000pt" viewBox="0 0 700.000000 700.000000"
 preserveAspectRatio="xMidYMid meet">
<metadata>
Created by potrace 1.14, written by Peter Selinger 2001-2017
</metadata>
<g transform="translate(0.000000,700.000000) scale(0.100000,-0.100000)"
fill="#000000" stroke="none">
<path d="M3319 4990 c-51 -14 -124 -69 -275 -206 -63 -58 -233 -242 -260 -282
-1 -2 -17 6 -35 16 -33 18 -136 54 -192 67 -123 27 -327 25 -448 -3 -69 -17
-167 -53 -210 -78 -4 -2 -27 22 -52 54 -108 136 -335 344 -445 409 -76 45
-151 19 -172 -58 -13 -47 -12 -1510 1 -1594 12 -82 54 -204 101 -300 153 -309
502 -585 808 -641 284 -51 541 3 780 162 96 64 186 144 251 223 l36 43 44 -23
c80 -41 160 -52 250 -34 35 6 37 5 64 -42 16 -26 41 -66 57 -87 32 -44 34 -53
13 -53 -8 0 -33 -8 -55 -18 -39 -18 -42 -18 -78 0 -93 45 -249 20 -336 -55
-87 -75 -124 -151 -130 -270 -3 -44 19 -141 40 -183 33 -65 352 -399 397 -416
16 -6 36 -7 50 -2 28 11 334 316 353 352 18 35 10 69 -21 97 -27 23 -60 28
-85 12 -8 -5 -72 -66 -141 -135 l-127 -126 -90 93 c-191 198 -209 226 -200
318 9 94 76 160 162 160 39 0 58 -15 81 -65 32 -66 101 -67 146 -3 35 50 47
60 87 73 59 21 104 10 250 -58 193 -90 266 -107 456 -102 67 2 152 10 191 19
87 21 242 94 314 148 84 64 197 183 254 270 52 78 52 79 87 72 141 -26 277 29
402 165 172 185 231 526 148 842 -70 265 -292 538 -502 617 -29 11 -77 16
-148 17 -95 0 -110 -3 -163 -28 -32 -16 -71 -40 -88 -55 l-31 -25 -71 35 c-83
41 -157 68 -207 75 -19 3 -52 8 -72 13 -69 15 -297 3 -368 -18 -99 -31 -147
-49 -201 -78 -44 -25 -51 -26 -66 -12 -40 35 -133 77 -199 91 -67 14 -107 14
-179 2 l-30 -5 1 253 c1 221 -2 256 -17 288 -10 19 -24 41 -32 48 -23 18 -69
29 -98 21z m-1880 -262 c273 -237 431 -463 495 -707 25 -99 42 -126 84 -134
58 -11 103 41 95 108 -10 86 -55 227 -103 319 l-20 40 38 18 c68 32 77 24 96
-87 3 -16 8 -39 10 -51 2 -12 7 -43 10 -70 12 -94 16 -129 20 -149 3 -11 5
-23 5 -27 1 -5 10 -17 21 -28 28 -28 71 -26 100 5 22 23 24 35 23 103 -1 78
-26 274 -43 331 -6 22 -5 31 3 32 7 1 40 2 75 3 52 2 62 0 58 -13 -3 -9 -8
-32 -12 -51 -4 -19 -8 -37 -9 -40 -3 -14 -15 -90 -20 -125 -3 -22 -6 -79 -7
-127 -1 -80 1 -90 22 -113 19 -20 32 -25 60 -23 29 2 38 9 52 38 16 34 20 52
33 170 10 86 37 224 46 234 10 11 84 -11 99 -29 7 -8 -2 -40 -29 -101 -63
-147 -86 -258 -65 -327 9 -29 57 -48 92 -36 35 12 50 41 91 171 70 225 206
421 436 626 95 85 95 85 96 0 4 -246 -1 -1138 -6 -1213 -14 -208 -107 -443
-232 -586 -92 -105 -247 -232 -317 -258 -44 -18 -218 50 -274 106 -16 15 -13
20 42 78 67 70 80 115 46 157 l-19 25 -193 0 c-180 0 -194 -1 -210 -20 -36
-41 -13 -103 68 -187 19 -19 34 -37 34 -41 0 -23 -119 -89 -203 -114 l-57 -16
-57 30 c-173 93 -333 260 -425 446 -56 111 -80 188 -93 295 -3 28 -6 1288 -3
1353 2 23 5 22 47 -15z m3071 -502 c19 -4 69 -19 110 -33 228 -80 396 -255
476 -495 28 -83 28 -84 29 -358 0 -233 -3 -285 -18 -339 -110 -401 -466 -644
-857 -586 -103 16 -251 75 -316 127 -140 113 -226 233 -277 388 -36 108 -39
137 -39 394 0 254 3 290 34 386 102 318 395 531 722 525 56 -1 117 -5 136 -9z
m-806 -36 l43 -21 -41 -42 c-104 -108 -170 -210 -210 -328 -29 -85 -27 -100
-29 188 l-2 203 25 9 c61 24 152 20 214 -9z m1562 -10 c134 -66 281 -252 339
-428 34 -105 43 -165 43 -295 0 -152 -12 -209 -65 -317 -60 -122 -161 -209
-268 -229 -50 -9 -50 -9 -35 54 20 87 23 149 22 360 -2 281 -6 325 -38 421
-48 147 -111 254 -212 364 -33 36 -59 66 -57 68 1 1 26 11 55 21 73 26 137 20
216 -19z m-1827 -992 c1 -103 8 -169 26 -230 l14 -48 -32 1 c-39 0 -122 31
-122 44 0 6 17 53 37 105 20 52 44 121 53 153 9 31 18 57 20 57 2 0 4 -37 4
-82z m-1065 -595 c17 -16 43 -35 56 -44 l25 -17 -50 -3 c-27 -2 -79 -2 -115 1
l-65 5 36 22 c19 12 44 31 54 43 23 25 21 25 59 -7z"/>
<path d="M2712 3511 c-56 -22 -86 -50 -119 -113 -23 -45 -27 -65 -28 -138 0
-75 3 -90 27 -132 110 -187 358 -66 358 175 0 160 -111 257 -238 208z m66
-107 c28 -19 28 -58 1 -78 -25 -17 -57 -9 -77 22 -12 19 -11 24 12 47 29 29
34 30 64 9z"/>
<path d="M1835 3506 c-98 -43 -132 -198 -72 -329 73 -160 236 -189 323 -57 63
95 36 273 -53 352 -49 45 -139 60 -198 34z m160 -117 c6 -24 2 -36 -16 -55
-53 -57 -140 -1 -108 69 26 58 111 48 124 -14z"/>
<path d="M3893 3515 c-44 -19 -53 -42 -56 -139 -2 -72 1 -89 19 -113 40 -53
127 -55 166 -2 29 38 32 155 6 208 -11 22 -27 42 -36 45 -42 13 -70 13 -99 1z"/>
<path d="M4775 3520 c-29 -12 -65 -48 -66 -68 -11 -133 0 -186 42 -216 45 -31
113 -15 141 32 21 35 22 166 2 204 -22 43 -78 65 -119 48z"/>
<path d="M4226 3213 c-40 -11 -77 -75 -68 -119 9 -48 70 -93 115 -85 5 1 7
-35 5 -79 -5 -94 -21 -123 -87 -157 -47 -24 -77 -19 -117 18 -20 18 -43 24
-87 20 -10 0 -24 -15 -32 -35 -38 -91 57 -189 190 -195 67 -3 134 25 187 76
l38 37 37 -35 c20 -18 43 -40 51 -46 22 -20 62 -28 143 -28 66 1 82 4 118 28
56 37 80 79 76 130 -5 76 -69 100 -128 47 -19 -17 -46 -31 -59 -32 -40 -3 -85
21 -113 62 -22 31 -26 50 -28 111 -2 67 0 74 18 77 82 13 121 75 91 147 -24
56 -41 62 -194 63 -75 0 -146 -2 -156 -5z"/>
</g>
</svg>