<svg xmlns="http://www.w3.org/2000/svg" viewBox="0 0 454.99 471.41"><defs><style>.cls-1{fill:#e40029;}.cls-2{fill:#fe2c4c;}.cls-3{fill:#fe2749;}.cls-4{fill:#fe2449;}.cls-5{fill:#fe8257;}.cls-6{fill:#fe6155;}.cls-7{fill:#fe5260;}.cls-8{fill:#fe7155;}.cls-9{fill:#d90128;}.cls-10{fill:#fd5563;}.cls-11{fill:#fc1d43;}.cls-12{fill:#fe6e53;}.cls-13{fill:#f41439;}.cls-14{fill:#dc0127;}.cls-15{fill:#dc0126;}.cls-16{fill:#a8132e;}.cls-17{fill:#a5132f;}.cls-18{fill:#e5022b;}.cls-19{fill:#fb133d;}.cls-20{fill:#fe2144;}.cls-21{fill:#fe5251;}.cls-22{fill:#fd6555;}.cls-23{fill:#c50121;}.cls-24{fill:#e3022b;}.cls-25{fill:#f9143d;}.cls-26{fill:#fe2347;}.cls-27{fill:#fe514f;}.cls-28{fill:#c10121;}</style></defs><g id="图层_2" data-name="图层 2"><g id="logo_图像" data-name="logo 图像"><path class="cls-1" d="M169.2,157.83c-8.68-8.45-19.4-14-29.29-20.79-9.2-8.77-13.46-20.44-18-31.78-2.64-6.57-3.74-13.77-5.29-20.74-.27-1.2-.9-2.81.82-3.43,1.24-.46,2.33.56,2.88,1.53,9.87,17.3,27.63,24.8,43.27,34.93,1.52,1,3.35,1.58,4.16,3.41,4.47,12.15,10.8,23.14,20,32.38q10.58,10.6,20.94,21.41c7.68,8,13.22,17.43,17.57,27.6.48,1.12.37,2.71,2.24,3.42,7.06-19.46,20.48-34.27,35.22-48.1,11-10.32,18.57-22.89,24.19-36.75,2.58-4.18,7-6,10.91-8.5,4.92-3.1,9.92-6.11,14.85-9.2,8.44-5.29,15.81-11.65,20.7-20.52a10.69,10.69,0,0,1,1.43-2c.76-.85,1.53-2.08,2.82-1.56,1.53.62,1.39,2.22,1.08,3.48-2.81,11.28-5,22.76-10.41,33.23-3.5,6.8-7,13.61-11.39,19.89-23.7,13.59-45,29.93-61.08,52.43-10.17,14.27-16.18,30-17,47.58l-.73.46c-1.2,1.84-.58,3.9-.58,5.84q-.06,104.94,0,209.9c0,4.49,0,8.95-1.39,13.27-4.09,7.4-11.36,8.32-17.2,2.18a26.11,26.11,0,0,1-2.44-11.57q.09-108.32,0-216.62a48.8,48.8,0,0,0-2.6-17c-7.22-25.84-23-45.79-43.19-62.67-.76-.63-1.62-1.12-2.42-1.68Z"/><path class="cls-2" d="M193.71,136.3C182.71,121.62,179.24,105,181,87c2.7.14,2.75,2.46,3.38,4.22a74.17,74.17,0,0,0,17.18,27.68c.83-5.64-.5-10.93-.24-16.25.74-15.35,6.14-29.13,12.3-42.8.75-1.66,1.61-3.28,2.25-5,2.59-5,5.56-9.82,8.25-14.78,2.35-4.34,4.69-4.55,7.13-.16,5.81,10.42,12.4,20.47,16.05,32,1.85,5.58,4.2,11,4.45,17a54.83,54.83,0,0,0-1,7.85c-.14,4.47-1.46,8.1-6,9.88a5.88,5.88,0,0,0-2.23,1.92c-4.6,5.53-5.35,5.69-11.55,2.61-2.57-2.62-4.33-2.64-5.94,1.16-1.8,4.23-3.69,8.44-5.51,12.66-.64,1.49-.86,3.25-2.71,3.88-3.42.59-6.59-.59-9.79-1.45-2.31-.62-3.63-.25-3.34,2.47s-.81,4.32-3.65,3.92C197.38,133.45,195.89,135.67,193.71,136.3Z"/><path class="cls-3" d="M167.75,121c-18.45-10.81-38.66-19.37-49.94-39.44,3.16,19.48,8.92,37.7,21.27,53.25a7.76,7.76,0,0,1,.83,2.27c-9.72-4-18.36-10.34-28.47-13.56-.78-.25-1.56-.52-2.34-.78A98.19,98.19,0,0,1,95,74.13c-.23-9.71-1.11-19.48,1-29.13,3.43-1,6.92-.3,10.38-.39,3-.08,4.9,2,6.27,4.32,11,18.58,28.48,29.35,47.13,38.57,3.46,1.71,5,3.77,4.79,7.7-.18,3.24-.71,6.6.4,9.83Q166.35,113,167.75,121Z"/><path class="cls-4" d="M318,135.7c-.25-3,1.62-5.74,3.29-8.27a99.87,99.87,0,0,0,10.37-20.59c3.24-8.86,5.23-18.12,7.21-27.34-2.47,1.84-3.93,4.69-5.61,7.27-5.19,8-13,14-21,19-3.88,2.44-7.85,4.72-11.78,7.06s-8.14,6.31-12.27,7.78c-.27-4,1.41-8.84,1.86-12.93a137.52,137.52,0,0,0,.83-13.91,6.25,6.25,0,0,1,.61-3.24A5.66,5.66,0,0,1,293,89a78.91,78.91,0,0,1,9.14-5.17c16.29-8.46,31.72-19.81,41-35.64a7.21,7.21,0,0,1,2.07-2.56,6.72,6.72,0,0,1,3.23-.8l8.78-.68a2.87,2.87,0,0,1,2.22.44,2.88,2.88,0,0,1,.67,2c.88,12.49,1.17,25.1-.53,37.51s-5.45,24.68-12.2,35.24a10.12,10.12,0,0,1-1.8,2.26,11.24,11.24,0,0,1-3.11,1.67A170.93,170.93,0,0,0,318,135.83S318,135.74,318,135.7Z"/><path class="cls-5" d="M246.12,72C242.2,60.72,235.65,50.73,230,40.27c-1.78-3.33-3-3.3-4.8.13-2.56,5-5.52,9.78-8.32,14.65-4.31,6.05-4.72,6.36-11.41,3.78-3.6-1.38-7.94-1-10.76-4.57-1.12-1.43-2.27.2-3.18,1.15-1.39,1.43-1.84,4.1-4.71,3.62,3.2-11.15,9.15-21,15.32-30.58,5.65-8.82,12.41-16.84,19.39-24.66,4.29-4.81,7.72-5.08,11.71-.6,13.78,15.46,26.14,31.9,34,51.27C270,61.09,272.24,67.86,273,75c-2.84-1.54-5.2-1.51-8.32.31s-7.16,2.22-10.87,2.64C249.58,78.46,248,74.93,246.12,72Z"/><path class="cls-6" d="M35.87,127l-.06-.28c45-4.42,91.64,11.87,124.1,43.37-1.64,1.42-4.14.63-6.17-.13-16-6-33.49-5.53-50.53-6.31-10.75-.5-21.66-1.6-31.91-5.07-9.88-3.34-18.71-9.38-26.16-16.64C40.9,137.8,37.2,132.86,35.87,127Z"/><path class="cls-7" d="M165,105c-2-2.7-1.09-5.82-.87-8.65.32-4.2-1.41-6.22-5.06-7.88-13.62-6.19-26.1-14.19-36.74-24.78-3.37-3.35-6.72-7.07-8.85-11.24C110.32,46.4,106,44,99.46,45A22.46,22.46,0,0,1,96,45c1-2,2.93-1.34,4.44-1.28,24.26.94,46.22,8.8,66.3,22.26,2.55,1.71,3.42,3.4,2.15,6.55C164.65,83,165,94,165,105Z"/><path class="cls-8" d="M186.86,59c2.39-1.23,2.95-3.91,4.6-5.71,1.06-1.17,2.78-2.92,4-.84,3.52,5.74,10.19,4.19,15.08,6.76,2.18,1.15,4-3,6.33-4.19-3.17,9-7.83,17.43-10.53,26.7-3.65,12.55-5.09,25.09-2.75,38a15.59,15.59,0,0,1-.25,2.8,79.62,79.62,0,0,1-15.48-19.83C185,97.69,184.1,91.89,181,87A77.35,77.35,0,0,1,186.86,59Z"/><path class="cls-9" d="M217,128.05c2.59-5.84,5.07-11.74,7.8-17.52,2.39-5,2.52-5,6.13-.47,6.88,8.66,9.92,18.67,10.38,29.58.11,2.57-1.11,5.89,3.88,5.17,1.73-.25,1.62,2,1.72,3.55s-1.73,2.91-.8,4.66c-5.55,6-11.15,12-16.64,18.16-1.2,1.34-2,1.42-3.07,0-5.85-7.38-13-13.52-19.56-20.22,1.58-3.48,3.67-6,8.25-3.8C214.69,140.43,214.12,134,217,128.05Z"/><path class="cls-10" d="M345.94,45.12c-6.15,13.38-16.44,23-28.38,31.05a190.58,190.58,0,0,1-26.76,14.9c-1.46-7.13-2.24-14.4-4.43-21.37a2.37,2.37,0,0,1,1.06-3C305.16,54.7,324.14,46.1,345.94,45.12Z"/><path class="cls-11" d="M246.09,153c-1.64-1.09-1.16-2.53-.66-4,.39-1.1,1-2.39,0-3.25-1.27-1.11-2,.43-2.83,1.06-2,1.52-2.81.54-2.61-1.41,1.36-12.94-3.86-24.16-9.09-35.39,4.59,2.43,8.83,3.64,10.78-3.11a1.15,1.15,0,0,1,.66-.72c8.6-1.91,6.73-9.13,7.64-15a10,10,0,0,1,.9-2.21c2.87,3.2,2.37,7.17,2.53,11-.18,3.93,0,7.87-.09,11.8.16,2.46-.51,4.91-.12,8.32,9.13-10.92,16.53-21.94,19.27-35.71,2.81,1.44,1.33,3.37,2.33,4.48,2,25.57-8.66,45.81-26.57,63A8.54,8.54,0,0,1,246.09,153Z"/><path class="cls-12" d="M252,100c.54-3.74-.9-7.28-1.08-11-1-5.84-3-11.39-4.78-17,6.78,5.84,13.27,5.75,20.43.24,3.15-2.43,4.83.51,6.41,2.76-.21,4.75,2.94,9,1.86,13.91l-1.63-3.2c-2.09,13.76-10.26,24-18.08,34.46-.79,1.05-1.87,2.27-3.33,1.41s-.3-2-.14-3.11c.26-1.79.24-3.63.33-5.45A35.78,35.78,0,0,0,252,100Z"/><path class="cls-13" d="M217,128.05c.29,6.35-2.36,12.65-.17,19.07.41,1.21-1.28,3.34-2.06,2.41-3.8-4.48-5.31,1.13-7.93,1.44-5-4.34-9.74-8.89-13.11-14.67,1.4-2.53,2.79-5,6.45-3.72,2.44.84,2.74-.26,2.37-2.53-.81-4.92.11-5.51,4.85-3.86A31.69,31.69,0,0,0,217,128.05Z"/><path class="cls-14" d="M259.05,314.17c-3.06-5-5.16-10.47-5.08-16.37A28.11,28.11,0,0,1,266.11,275a23.17,23.17,0,0,1,2.21-1.29c21,19.63,46,36,74.11,41.91,22.95,4.81,46.85,2.44,69.8-2.37q13.95-2.92,27.63-7a3.75,3.75,0,0,0,2.31-1.4c1.72-3-5.54-6.25-3.24-8.81a103.77,103.77,0,0,1,13.62,13.22c1.14,1.34,2.3,2.82,2.43,4.57.23,3.18-2.87,5.48-5.63,7.08-33.41,19.33-71.09,33.16-109.68,32.4-16.86-.33-33.85-3.51-48.93-11a81.06,81.06,0,0,1-24.51-18.61A69.31,69.31,0,0,1,259.05,314.17Z"/><path class="cls-15" d="M188,275.21a7.34,7.34,0,0,1,3.29,1.43,23.55,23.55,0,0,1,7.64,8.56c4.81,9.39,2,21.05-3.4,30.1-11,18.34-31.32,29.39-52.1,34.36-24.26,5.79-49.89,4.36-74.06-1.76C45.9,342,23.76,331.74,2.86,319.71c-2.61-1.5-3.29-3.39-2.62-6.43a13.84,13.84,0,0,1,4.07-6.75c3.19-3,7.24-5.19,10-8.63a9.13,9.13,0,0,1-4.43,7.92c28.26,7.3,57.17,14.65,86.26,12.22,32-2.67,62.6-17.48,85.85-39.68,1.65-1.57,3.56-3.3,5.84-3.16Z"/><path class="cls-16" d="M214.81,222.17c3.29,5.32,3,11.39,3.06,17.21q.21,104.13.12,208.26c0,6.64-.09,13.27,1.88,19.72-3-2.81-3-6.47-3-10.16q0-108-.14-215.95c0-2.44.65-5-.7-7.33C216.51,229.91,215,226.11,214.81,222.17Z"/><path class="cls-17" d="M237.07,465.18c2-74.3.3-148.62.94-222.92,0-2-1-4.35,1-6.09l0,221C239,460,238.93,462.8,237.07,465.18Z"/><path class="cls-18" d="M419.07,127.45a6.5,6.5,0,0,1,3-.44,64.31,64.31,0,0,1,17.67,2.91,4.32,4.32,0,0,1,2.49,1.49c.73,1.11.34,2.59-.07,3.85-6.28,19.05-14.42,37.67-26.16,53.93s-27.27,30.14-45.76,37.91c-17.81,7.49-37.45,9.05-56.71,10.53-1.36.1-3.07,0-3.61-1.25s.58-2.57,1.61-3.48L342.8,205c-23,16.38-52.69,20.44-77.13,34.62-2.42,1.4-8.3,5.34-9.88,1.42-.48-1.18.53-13.69,1.11-13.7,4.11-.08,7.13-3.67,10-6.62C278,209.25,294.05,204.06,309.72,201s31.83-4.33,46.8-9.87c27.41-10.15,48.25-33.87,60.17-60.56a6.31,6.31,0,0,1,2.1-3Z"/><path class="cls-19" d="M438.86,295.88c.26,3.53,3.6,4.68,5.47,6.94s1.8,3.46-1.14,4.15c-20.41,4.78-40.41,10.95-61.66,12.29-30.88,2-59-5-85-21.49-9.81-6.21-18.51-13.88-27.4-21.29-.64-.53-.76-1.69-1.12-2.56a43.72,43.72,0,0,1,10.77-7.05c13.06-4.44,26-2.55,38.7,1.24a122,122,0,0,1,25.25,10.67,97.15,97.15,0,0,0,18.14,8.28,55.42,55.42,0,0,0,42.68-3.17c4.43-2.17,8.21-5.57,13.12-6.79C425,282.26,431.91,289.1,438.86,295.88Z"/><path class="cls-20" d="M417,132.08c-.65,6.1-4.91,10.4-7.79,15.36a103.21,103.21,0,0,1-28.83,32.49c-12,8.67-25.76,13.94-40.31,17.22-13.37,3-27.19,3.35-40.38,7.4-15.5,4.75-29.48,11.67-39.63,24.84a6.67,6.67,0,0,1-1.17,1c-1.64-.6-.38-2.55-1.58-3.29,4-18.49,14.34-33.36,27-46.89a67,67,0,0,1,11-10.09c10.53-6.08,22.21-7.39,34-8.5,14.38-1.35,28.89-.31,43.18-3.45A72.44,72.44,0,0,0,412.23,135C413.49,133.58,414.42,131.49,417,132.08Z"/><path class="cls-21" d="M416.68,277.1c-18.94,14.62-39.31,18.65-61.87,8.95-11.55-5-22.32-11.54-34.37-15.55a82.11,82.11,0,0,0-39.66-3.57,9.53,9.53,0,0,1-2-.06c12.17-7.9,25.8-12.09,39.85-14.63,35.65-6.47,67.71,2.69,96.91,23.34A6.27,6.27,0,0,1,416.68,277.1Z"/><path class="cls-22" d="M416.82,132a30.69,30.69,0,0,1-2.41,2.68c-5.37,5.47-10.8,11-17.21,15.18-14.64,9.59-32.9,11.43-50.37,12.3-8.56.42-17.14.69-25.66,1.7-8.93,1-16.82,4-25.38,6.16.54-1.8,3.82-3.86,5.35-5.17q3.3-2.82,6.74-5.5,6.66-5.17,13.79-9.71a159.65,159.65,0,0,1,30.59-15.18c21.2-7.77,44.3-10.67,66.61-7.26A8.68,8.68,0,0,1,416.82,132Z"/><path class="cls-23" d="M256.19,231.06c2.16,3.27-.64,6.43-.22,9.66.12.94-.36,2.15.73,2.7s1.74-.57,2.48-1.15c8.05-6.29,17.28-10.08,26.87-13.39,13.27-4.59,26.46-9.44,39.17-15.54,7.28-3.5,13.95-8,20.76-12.4,1.16,2.24-.46,2.85-1.22,3.72-8.21,9.4-18.83,16.19-27.36,25.27-1.09,1.15-2.86,1.64-4.27,2.5-1.2.74-3.29,1-2.69,3s2.71,1.76,4.28,1.5c2.78-.47,5.52-1.23,8.36-.9a21.61,21.61,0,0,1,2.83.69c-20.25,3.15-40,8.08-58,18.25a92.28,92.28,0,0,0-9.93,6.58c-2.35,1.76-3.16.88-3.45-1.47a65.82,65.82,0,0,1-.68-7.41A84.13,84.13,0,0,1,256.19,231.06Z"/><path class="cls-24" d="M36,127c1.73,2.48,3.6,4.89,4.12,8a114.2,114.2,0,0,1,7.13,11.38c17.64,30.88,44.34,47.82,79.63,51.46,13.46,1.39,26.71,3.92,39.33,8.86a68.66,68.66,0,0,1,30.55,23.28,15.38,15.38,0,0,1,2.75,5.82c-1.1,9.88-2.36,10.71-10.18,4.91-12.61-9.35-27.51-13.24-41.87-18.44a169.53,169.53,0,0,1-28.75-13.79,15.07,15.07,0,0,0-4.16-1.88c2.28,4.06,6.33,5.2,9.08,7.83a65.43,65.43,0,0,0,18.83,13,14.39,14.39,0,0,1,6.64,5.11c1.5,2.31,4.18,2.58,6.32,3.78,1.57.86,2.75,2.15,2,4.06s-2.47,1.18-3.87.81c-4.46-1.16-8.78-3.06-13.55-2.38-12.34-1.76-24.77-3.05-37-5.37-26.83-5.09-46.43-21.16-62.54-42.32-13-17.07-20.27-36.93-28.06-56.55-1.3-3.29-.11-5.05,3.32-5.55C22.43,128,29.12,126.53,36,127Z"/><path class="cls-25" d="M188,274.65a159,159,0,0,1-50,34.5A127.73,127.73,0,0,1,114,316.43a152,152,0,0,1-38.9,3.4c-15.89-.76-31.39-4.17-46.74-8.45-6.93-1.93-14-4.14-21.61-3.31,1.24-4.65,6.92-5.49,7.27-10.18a157.07,157.07,0,0,1,23.8-21.11c2.45-.58,4.08,1,5.82,2.24a57.32,57.32,0,0,0,31,11.21c8,.38,15.81-1.74,23.29-4.73s14.77-6.88,22-10.54c13-6.53,26.62-10.46,41.12-10.85,5.41-.15,11,.19,16,2.77A39.18,39.18,0,0,1,188,274.65Z"/><path class="cls-26" d="M198.82,236.1C191.65,222.31,179.9,213.69,166,208c-13.26-5.41-27.35-7.32-41.53-9.14-23.94-3.08-45.43-11.8-62.21-30.06A114.58,114.58,0,0,1,40.11,135c6.56,5.82,12.22,12.63,20.1,17a70.75,70.75,0,0,0,28.69,9c15.35,1.26,30.75,1.91,46.11,3.13a54.88,54.88,0,0,1,20.12,5A8.94,8.94,0,0,0,160,170c17.74,15.4,32.27,33,38.67,56.21a49.37,49.37,0,0,1,2.19,12.7C198.6,239.08,198.26,237.91,198.82,236.1Z"/><path class="cls-27" d="M177.06,266.88c-21.24-3.74-40.85,1-59.7,10.82-8.78,4.57-17.56,9.18-27.25,11.87-17.71,4.91-33.25.25-47.79-9.78-1.5-1-3-2-4.55-3,28.5-21,60-30.57,95.52-25.23C148.84,253.89,163.72,258.18,177.06,266.88Z"/><path class="cls-28" d="M198.82,236.1a3.08,3.08,0,0,0,2,2.82,54.89,54.89,0,0,1-.21,25.38c-14.49-12.18-31.07-18.52-48.58-22.81-4-1-8-1.83-12.06-2.75,5.13-2.4,9.55.71,14.23,1.86,1,.24,2,.55,2.49-.72.34-.88-.1-2.07-.78-2.12-6-.35-7.86-6.71-12.63-8.52-10.68-4-18-12.78-27.33-18.78a9.45,9.45,0,0,1-1.77-1.75c-1-1.08-2.84-2.16-1.84-3.67,1.17-1.8,2.72,0,3.83.65,6.19,3.49,12.52,6.68,18.82,10,9.63,5,20,7.84,30.18,11.35a111.11,111.11,0,0,1,26.77,14c5,3.42,5,3.34,6-2.64A13.39,13.39,0,0,1,198.82,236.1Z"/><path class="cls-2" d="M252,100a18.72,18.72,0,0,1,0,13Q252,106.54,252,100Z"/></g></g></svg>